<?xml version="1.0"?>
<svg width="NaN" height="NaN" xmlns="http://www.w3.org/2000/svg" xmlns:svg="http://www.w3.org/2000/svg" version="1.1" xml:space="preserve">
 <g class="layer">
  <title>Layer 1</title>
  <g id="svg_7" transform="matrix(1, 0, 0, 1, 540, 540)"/>
  <g id="svg_5" transform="matrix(1.2, 0, 0, 1.2, 196.81, 78.41)">
   <path d="m95.91,42.3c6.61,-28.6 33.63,-47.68 62.79,-44.35c29.16,3.33 51.18,28.01 51.18,57.36c0,29.35 -22.02,54.03 -51.18,57.36c-29.16,3.33 -56.18,-15.75 -62.79,-44.35" fill="rgb(2,2,2)" fill-opacity="0" fill-rule="nonzero" id="svg_6" stroke="rgb(2,2,2)" stroke-dashoffset="0" stroke-miterlimit="4" stroke-width="3" transform="translate(-152.45, -57.73)"/>
  </g>
  <g id="svg_3" transform="matrix(1.2, 0, 0, 1.2, 128.4, 78.41)">
   <rect fill="rgb(2,2,2)" fill-opacity="0" fill-rule="nonzero" height="26.02" id="svg_4" stroke-dashoffset="0" stroke-miterlimit="4" stroke-width="2" width="190.92" x="-91.68" y="-12.1"/>
  </g>
  <g id="svg_1" transform="matrix(1.2, 0, 0, 1.2, 127.9, 77.91)">
   <path d="m20.5,-18.02l0,0l0,0.73l-2.11,0l0,-0.73q0,-0.42 -0.3,-0.72q-0.3,-0.29 -0.71,-0.29l0,0l-12.48,0q-0.42,0 -0.72,0.29q-0.3,0.3 -0.3,0.72l0,0l0,4.19q0,0.41 0.3,0.7q0.3,0.28 0.72,0.28l0,0l12.48,0q1.3,0 2.21,0.91q0.91,0.91 0.91,2.21l0,0l0,4.19q0,1.3 -0.91,2.21q-0.91,0.91 -2.21,0.91l0,0l-12.48,0q-1.3,0 -2.21,-0.91q-0.91,-0.91 -0.91,-2.21l0,0l0,-0.73l2.1,0l0,0.73q0,0.42 0.3,0.71q0.3,0.3 0.72,0.3l0,0l12.48,0q0.41,0 0.71,-0.3q0.3,-0.29 0.3,-0.71l0,0l0,-4.19q0,-0.41 -0.3,-0.7q-0.3,-0.28 -0.71,-0.28l0,0l-12.48,0q-1.3,0 -2.21,-0.91q-0.91,-0.91 -0.91,-2.21l0,0l0,-4.19q0,-1.3 0.91,-2.21q0.91,-0.91 2.21,-0.91l0,0l12.48,0q1.3,0 2.21,0.91q0.91,0.91 0.91,2.21zm5.79,13.47l0,0l12.22,0l0,2.13l-12.22,0q-1.3,0 -2.22,-0.92q-0.92,-0.93 -0.92,-2.23l0,0l0,-8.78q0,-1.3 0.92,-2.23q0.92,-0.92 2.22,-0.92l0,0l12.17,0l0,2.13l-12.17,0q-0.41,0 -0.71,0.3q-0.3,0.3 -0.3,0.72l0,0l0,8.78q0,0.42 0.3,0.72q0.3,0.3 0.71,0.3zm27.69,-1.02l0,-11.93l2.14,0l0,11.93q0,1.3 -0.93,2.23q-0.92,0.92 -2.25,0.92l0,0l-9.04,0q-1.3,0 -2.23,-0.92q-0.92,-0.93 -0.92,-2.23l0,0l0,-11.93l2.13,0l0,11.93q0,0.42 0.3,0.72q0.3,0.3 0.72,0.3l0,0l9.04,0q0.42,0 0.73,-0.3q0.31,-0.3 0.31,-0.72l0,0zm17.55,-11.93l0,-4.94l2.14,0l0,20.02l-12.2,0q-1.32,0 -2.25,-0.92q-0.92,-0.93 -0.92,-2.23l0,0l0,-8.78q0,-1.3 0.92,-2.23q0.93,-0.92 2.25,-0.92l0,0l10.06,0zm-10.06,12.95l0,0l9.05,0q0.42,0 0.71,-0.3q0.3,-0.3 0.3,-0.72l0,0l0,-8.78q0,-0.42 -0.3,-0.72q-0.29,-0.3 -0.71,-0.3l0,0l-9.05,0q-0.41,0 -0.71,0.3q-0.3,0.3 -0.3,0.72l0,0l0,8.78q0,0.42 0.3,0.72q0.3,0.3 0.71,0.3zm17.53,-12.95l9.04,0q1.33,0 2.25,0.92q0.93,0.93 0.93,2.23l0,0l0,5.46l-13.24,0l0,3.32q0,0.42 0.3,0.72q0.3,0.3 0.72,0.3l0,0l12.22,0l0,2.13l-12.22,0q-1.3,0 -2.23,-0.92q-0.92,-0.93 -0.92,-2.23l0,0l0,-8.78q0,-1.3 0.92,-2.23q0.93,-0.92 2.23,-0.92l0,0zm-1.02,3.15l0,3.32l11.08,0l0,-3.32q0,-0.42 -0.3,-0.72q-0.3,-0.3 -0.72,-0.3l0,0l-9.04,0q-0.42,0 -0.72,0.3q-0.3,0.3 -0.3,0.72l0,0zm18.9,-3.15l0,0l8.48,0l0,2.13l-8.48,0q-0.41,0 -0.71,0.3q-0.3,0.3 -0.3,0.72l0,0l0,11.93l-2.13,0l0,-11.93q0,-1.3 0.92,-2.23q0.92,-0.92 2.22,-0.92zm12.3,15.08l-2.13,0l0,-15.08l2.13,0l0,15.08zm-2.13,-17.89l0,-2.13l2.13,0l0,2.13l-2.13,0zm4.5,2.81l12.19,0q1.33,0 2.25,0.92q0.92,0.93 0.92,2.23l0,0l0,11.93l-12.22,0q-1.3,0 -2.22,-0.92q-0.92,-0.93 -0.92,-2.23l0,0l0,-5.46l13.21,0l0,-3.32q0,-0.42 -0.3,-0.72q-0.3,-0.3 -0.72,-0.3l0,0l-12.19,0l0,-2.13zm3.14,12.95l10.07,0l0,-4.34l-11.08,0l0,3.32q0,0.42 0.3,0.72q0.3,0.3 0.71,0.3l0,0zm22.13,2.13l0,-18.72l17.08,0l0,2.11l-14.97,0l0,6.18l12.03,0l0,2.14l-12.03,0l0,8.29l-2.11,0zm18.8,-18.72l17.08,0l0,2.11l-14.98,0l0,6.18l12.04,0l0,2.14l-12.04,0l0,6.18l14.98,0l0,2.11l-17.08,0l0,-18.72z" fill="rgb(2,2,2)" fill-rule="nonzero" id="svg_2" stroke-dashoffset="0" stroke-miterlimit="4" stroke-width="0" transform="translate(-86.79, 10.01)"/>
  </g>
 </g>
</svg>
